name Walk1.mot
datacolumns 19
datarows 15
range 2.59900000 2.61300000
endheader

                time	   L_ground_force_vx	   L_ground_force_vy	   L_ground_force_vz	   L_ground_force_px	   L_ground_force_py	   L_ground_force_pz	   R_ground_force_vx	   R_ground_force_vy	   R_ground_force_vz	   R_ground_force_px	   R_ground_force_py	   R_ground_force_pz	   L_ground_torque_x	   L_ground_torque_y	   L_ground_torque_z	   R_ground_torque_x	   R_ground_torque_y	   R_ground_torque_z	
          2.59900000	          0.00000007	          0.00000026	         -0.00000002	         -0.00000000	          0.00000000	         -0.00000000	         44.00394943	        193.72429672	          5.22309999	          0.26302119	          0.00000000	          0.07385241	          0.00000000	         -0.00000000	          0.00000000	          0.00000000	        -10.20691658	          0.00000000	
          2.60000000	          0.00000006	          0.00000023	         -0.00000002	         -0.00000000	          0.00000000	         -0.00000000	         42.10518917	        184.94191590	          5.32586842	          0.26284323	          0.00000000	          0.07303938	          0.00000000	         -0.00000000	          0.00000000	          0.00000000	         -9.85663658	          0.00000000	
          2.60100000	          0.00000005	          0.00000021	         -0.00000002	         -0.00000000	          0.00000000	         -0.00000000	         40.22023976	        176.31996199	          5.40412846	          0.26252927	          0.00000000	          0.07218939	          0.00000000	         -0.00000000	          0.00000000	          0.00000000	         -9.50583721	          0.00000000	
          2.60200000	          0.00000004	          0.00000019	         -0.00000002	         -0.00000000	          0.00000000	         -0.00000000	         38.35244107	        167.86685142	          5.45862998	          0.26206985	          0.00000000	          0.07130178	          0.00000000	         -0.00000000	          0.00000000	          0.00000000	         -9.15516766	          0.00000000	
          2.60300000	          0.00000004	          0.00000017	         -0.00000002	         -0.00000000	          0.00000000	         -0.00000000	         36.50505183	        159.59057584	          5.49023139	          0.26145538	          0.00000000	          0.07037596	          0.00000000	         -0.00000000	          0.00000000	          0.00000000	         -8.80527379	          0.00000000	
          2.60400000	          0.00000003	          0.00000015	         -0.00000002	         -0.00000000	          0.00000000	         -0.00000000	         34.68123420	        151.49864088	          5.49989277	          0.26067609	          0.00000000	          0.06941142	          0.00000000	         -0.00000000	          0.00000000	          0.00000000	         -8.45679456	          0.00000000	
          2.60500000	          0.00000003	          0.00000013	         -0.00000001	         -0.00000000	          0.00000000	         -0.00000000	         32.88403974	        143.59800746	          5.48866753	          0.25972214	          0.00000000	          0.06840772	          0.00000000	         -0.00000000	          0.00000000	          0.00000000	         -8.11035863	          0.00000000	
          2.60600000	          0.00000002	          0.00000011	         -0.00000001	         -0.00000000	          0.00000000	         -0.00000000	         31.11639699	        135.89503781	          5.45769271	          0.25858366	          0.00000000	          0.06736452	          0.00000000	         -0.00000000	          0.00000000	          0.00000000	         -7.76658115	          0.00000000	
          2.60700000	          0.00000001	          0.00000010	         -0.00000001	         -0.00000000	          0.00000000	         -0.00000000	         29.38110058	        128.39544814	          5.40817820	          0.25725079	          0.00000000	          0.06628160	          0.00000000	         -0.00000000	          0.00000000	          0.00000000	         -7.42606091	          0.00000000	
          2.60800000	          0.00000001	          0.00000008	         -0.00000001	         -0.00000000	          0.00000000	         -0.00000000	         27.68080195	        121.10426940	          5.34139515	          0.25571380	          0.00000000	          0.06515885	          0.00000000	         -0.00000000	          0.00000000	          0.00000000	         -7.08937782	          0.00000000	
          2.60900000	          0.00000001	          0.00000007	         -0.00000001	         -0.00000000	          0.00000000	         -0.00000000	         26.01800164	        114.02581764	          5.25866390	          0.25396312	          0.00000000	          0.06399627	          0.00000000	         -0.00000000	          0.00000000	          0.00000000	         -6.75709060	          0.00000000	
          2.61000000	          0.00000000	          0.00000005	         -0.00000001	         -0.00000000	          0.00000000	         -0.00000000	         24.39504278	        107.16367512	          5.16134174	          0.25198948	          0.00000000	          0.06279405	          0.00000000	         -0.00000000	          0.00000000	          0.00000000	         -6.42973448	          0.00000000	
          2.61100000	         -0.00000000	          0.00000004	         -0.00000001	         -0.00000000	          0.00000000	         -0.00000000	         22.81410526	        100.52068342	          5.05081045	          0.24978401	          0.00000000	          0.06155250	          0.00000000	         -0.00000000	          0.00000000	          0.00000000	         -6.10781891	          0.00000000	
          2.61200000	         -0.00000001	          0.00000003	         -0.00000001	         -0.00000000	          0.00000000	         -0.00000000	         21.27720022	         94.09894907	          4.92846394	          0.24733840	          0.00000000	          0.06027210	          0.00000000	         -0.00000000	          0.00000000	          0.00000000	         -5.79182521	          0.00000000	
          2.61300000	         -0.00000001	          0.00000002	         -0.00000001	         -0.00000000	          0.00000000	         -0.00000000	         19.78616438	         87.89986096	          4.79569569	          0.24464503	          0.00000000	          0.05895351	          0.00000000	         -0.00000000	          0.00000000	          0.00000000	         -5.48220424	          0.00000000	
